<svg width="200" height="174" xmlns="http://www.w3.org/2000/svg"><defs id="SvgjsDefs1253"></defs><g id="SvgjsG1254" featurekey="root" fill="#29bab3"></g><g id="SvgjsG1255" featurekey="symbol1" fill="#003366" transform="matrix(1.0526315789473684,0,0,1.0526315789473684,43.421052631578945,-12.206454026071649)"><title>Artboard 30</title><path d="M26.15,57.18A17.34,17.34,0,0,0,43.47,74.5H64.74a13.76,13.76,0,0,0,4.48-26.77l-7.54-2.6,6.49-20.83H72.9A1.5,1.5,0,0,0,74.38,23a1.43,1.43,0,0,0,.07-.16l2.42-9.14A1.5,1.5,0,1,0,74,13l-2.21,8.33h-11a1.5,1.5,0,0,0,0,3H65L58.84,44.16l-9.73-3.35a17.12,17.12,0,0,0-11.45,0l-2.24-8.73h4.33a1.5,1.5,0,0,0,0-3H27.65a1.5,1.5,0,0,0,0,3h4.67l2.57,10c-.5.29-1,.6-1.48.94A17.13,17.13,0,0,0,26.15,57.18Zm9-11.66a14.18,14.18,0,0,1,8.27-2.68,14.45,14.45,0,0,1,4.71.8l20.11,6.93a10.73,10.73,0,0,1,4.55,3.05H65.85a1.5,1.5,0,0,0,0,3h8.35a1.48,1.48,0,0,0,.44-.07,10.72,10.72,0,0,1,.73,2.57H65.85a1.5,1.5,0,0,0,0,3H75.4a10.66,10.66,0,0,1-.64,2.5H65.85a1.5,1.5,0,0,0,0,3H73a10.74,10.74,0,0,1-8.26,3.88H43.47A14.34,14.34,0,0,1,29.15,57.18,14.16,14.16,0,0,1,35.16,45.52Z"></path><path d="M42.16,63a5.82,5.82,0,0,0,3.47-1.15L51.29,66a1.5,1.5,0,0,0,1.77-2.42l-5.56-4.07A5.86,5.86,0,1,0,42.16,63Zm0-8.72a2.86,2.86,0,1,1-2.86,2.86A2.86,2.86,0,0,1,42.16,54.32Z"></path><path d="M20.5,80.38a1.5,1.5,0,0,0,1.5,1.5H85.5a1.5,1.5,0,0,0,0-3H22A1.5,1.5,0,0,0,20.5,80.38Z"></path></g><g id="SvgjsG1256" featurekey="text1" transform="matrix(3.3333326269080636,0,0,3.3333326269080636,-4.333333845491654,70.66668326766052)"><path d="M9.16 12.06 l-5.58 0 l0 4 l4.26 0 c0.2 0 0.3 0.1 0.3 0.3 l0 1.46 c0 0.2 -0.1 0.3 -0.3 0.3 l-4.26 0 l0 3.82 l5.68 0 c0.2 0 0.3 0.1 0.3 0.3 l0 1.46 c0 0.2 -0.1 0.3 -0.3 0.3 l-7.66 0 c-0.2 0 -0.3 -0.1 -0.3 -0.3 l0 -13.4 c0 -0.2 0.1 -0.3 0.3 -0.3 l7.56 0 c0.2 0 0.3 0.1 0.3 0.3 l0 1.46 c0 0.2 -0.1 0.3 -0.3 0.3 z M19.4 23.82 c0.02 0.08 0.04 0.18 -0.06 0.18 l-1.84 0 c-0.22 0 -0.36 -0.2 -0.36 -0.48 l0 -0.68 c-0.46 0.7 -1.12 1.26 -2.14 1.26 l-0.62 0 c-1.86 0 -3.22 -1.12 -3.22 -3.12 s1.1 -2.9 3.18 -2.9 l2.8 0 l0 -0.82 c0 -1.06 -0.38 -1.34 -1.42 -1.34 l-0.54 0 c-1.02 0 -1.78 0.26 -2.2 0.44 c-0.32 0.12 -0.54 0.12 -0.66 -0.16 l-0.42 -0.98 c-0.08 -0.2 -0.1 -0.36 0.1 -0.48 c0.84 -0.52 2.08 -0.82 3.18 -0.82 l0.54 0 c2.48 0 3.64 1.1 3.64 3.44 l0 6.16 c0 0.1 0.02 0.22 0.04 0.3 z M15.44 22.1 c1.08 0 1.46 -0.44 1.7 -0.96 l0 -1.32 l-2.76 0 c-0.6 0 -1.02 0.26 -1.02 1.14 c0 0.84 0.42 1.14 1.02 1.14 l1.06 0 z M25.14 17.94 c2.68 0.26 3.98 0.86 3.98 3.18 c0 2.08 -1.3 2.98 -3.56 2.98 l-0.7 0 c-2.14 0 -3.32 -0.9 -3.52 -2.6 c-0.02 -0.18 0.1 -0.3 0.3 -0.3 l1.46 0 c0.3 0 0.42 0.06 0.48 0.22 c0.22 0.44 0.46 0.7 1.22 0.7 l0.86 0 c0.86 0 1.24 -0.34 1.24 -1 c0 -0.86 -0.2 -1.08 -1.76 -1.22 c-2.78 -0.22 -3.74 -1 -3.74 -3.06 c0 -2.04 1.34 -2.9 3.4 -2.9 l0.7 0 c2.02 0 3.44 1.06 3.44 2.84 c0 0.2 -0.06 0.32 -0.28 0.32 l-1.44 0 c-0.24 0 -0.42 -0.08 -0.52 -0.36 c-0.18 -0.46 -0.42 -0.82 -1.24 -0.82 l-0.66 0 c-0.76 0 -1.18 0.32 -1.18 0.88 c0 0.58 0.16 0.98 1.52 1.14 z M39.68 14 c0.22 0 0.24 0.16 0.16 0.36 l-5.32 13.3 c-0.12 0.28 -0.28 0.34 -0.42 0.34 l-1.62 0 c-0.24 0 -0.28 -0.16 -0.2 -0.36 l1.74 -4.34 l-3.56 -8.94 c-0.08 -0.2 -0.04 -0.36 0.18 -0.36 l1.66 0 c0.16 0 0.3 0.06 0.4 0.34 l2.4 6.24 l2.5 -6.24 c0.12 -0.28 0.24 -0.34 0.42 -0.34 l1.66 0 z M43.96 12.06 l0 4 l4.16 0 c0.2 0 0.3 0.1 0.3 0.3 l0 1.46 c0 0.2 -0.1 0.3 -0.3 0.3 l-4.16 0 l0 5.58 c0 0.2 -0.1 0.3 -0.3 0.3 l-1.68 0 c-0.2 0 -0.3 -0.1 -0.3 -0.3 l0 -13.4 c0 -0.2 0.1 -0.3 0.3 -0.3 l7.54 0 c0.2 0 0.3 0.1 0.3 0.3 l0 1.46 c0 0.2 -0.1 0.3 -0.3 0.3 l-5.56 0 z M51.82 10.3 c0 -0.2 0.1 -0.3 0.3 -0.3 l1.62 0 c0.2 0 0.3 0.1 0.3 0.3 l0 1.58 c0 0.2 -0.1 0.3 -0.3 0.3 l-1.62 0 c-0.2 0 -0.3 -0.1 -0.3 -0.3 l0 -1.58 z M51.82 14.3 c0 -0.2 0.1 -0.3 0.3 -0.3 l1.62 0 c0.2 0 0.3 0.1 0.3 0.3 l0 9.4 c0 0.2 -0.1 0.3 -0.3 0.3 l-1.62 0 c-0.2 0 -0.3 -0.1 -0.3 -0.3 l0 -9.4 z M61.080000000000005 16 l-1.42 0 l0 4.98 c0 0.78 0.34 1.02 1.3 1.06 c0.26 0.02 0.4 0.18 0.38 0.42 l-0.06 1.2 c-0.02 0.24 -0.18 0.38 -0.48 0.38 c-2.68 0 -3.38 -1 -3.38 -3.08 l0 -4.96 l-0.98 0 c-0.2 0 -0.3 -0.1 -0.3 -0.3 l0 -1.38 c0 -0.22 0.1 -0.32 0.3 -0.32 l0.98 0 l0 -1.28 c0 -0.2 0.1 -0.3 0.3 -0.3 l1.64 0 c0.2 0 0.3 0.1 0.3 0.3 l0 1.28 l1.4 0 c0.22 0 0.32 0.1 0.32 0.3 l0 1.4 c0 0.2 -0.16 0.3 -0.3 0.3 z "></path></g></svg>